<?xml version="1.0" standalone="no"?>
<!DOCTYPE svg PUBLIC "-//W3C//DTD SVG 20010904//EN"
 "http://www.w3.org/TR/2001/REC-SVG-20010904/DTD/svg10.dtd">
<svg version="1.0" xmlns="http://www.w3.org/2000/svg"
 width="1536.000000pt" height="1024.000000pt" viewBox="0 0 1536.000000 1024.000000"
 preserveAspectRatio="xMidYMid meet">

<g transform="translate(0.000000,1024.000000) scale(0.100000,-0.100000)"
fill="#000000" stroke="none">
<path d="M2761 6609 c-138 -27 -231 -78 -337 -183 -64 -64 -89 -99 -122 -166
-74 -151 -73 -144 -70 -1020 l3 -775 28 -80 c42 -118 81 -181 171 -271 61 -61
100 -90 156 -117 144 -70 102 -68 1056 -65 l859 3 72 26 c152 56 288 175 361
318 75 145 73 116 70 1026 -3 807 -3 810 -25 875 -66 192 -221 347 -413 413
l-65 22 -850 2 c-467 0 -870 -3 -894 -8z m464 -371 c47 -37 55 -72 55 -243 0
-177 -9 -213 -62 -245 -39 -24 -78 -25 -118 -5 -56 29 -62 55 -58 267 l3 190
33 29 c41 37 105 40 147 7z m935 7 c54 -28 60 -55 60 -255 l0 -180 -34 -38
c-31 -33 -39 -37 -85 -37 -44 0 -55 4 -83 33 l-33 32 0 196 0 196 37 34 c43
38 88 45 138 19z m-220 -285 l0 -90 -310 0 -310 0 0 90 0 90 310 0 310 0 0
-90z m-950 -4 l0 -83 -32 -7 c-79 -16 -157 -89 -186 -175 -9 -24 -12 -166 -12
-475 0 -414 2 -444 20 -484 30 -66 66 -106 122 -138 l53 -29 665 0 665 0 58
29 c67 32 118 94 139 166 10 34 13 150 13 476 l0 430 -30 59 c-36 69 -84 111
-157 136 l-53 18 -3 80 c-3 94 -3 94 93 61 83 -29 133 -60 191 -122 56 -59 96
-136 113 -216 7 -34 11 -201 11 -465 0 -449 -3 -479 -58 -581 -59 -110 -181
-200 -307 -226 -34 -7 -270 -10 -707 -8 l-655 3 -85 43 c-129 63 -207 159
-243 299 -22 85 -22 862 0 948 23 88 53 143 109 203 59 62 114 97 194 123 85
27 82 30 82 -65z m1145 -410 c79 -33 96 -129 36 -203 -60 -74 -567 -559 -603
-576 -50 -23 -106 -21 -150 6 -47 28 -322 297 -348 340 -30 48 -26 109 8 148
23 26 38 33 80 37 l52 5 139 -137 c76 -75 144 -136 151 -136 7 0 128 115 270
255 141 140 268 259 281 264 33 14 45 13 84 -3z"/>
<path d="M5851 5973 c-18 -46 -462 -1215 -477 -1255 l-13 -38 142 0 142 0 50
140 50 140 265 0 266 0 48 -132 c27 -73 52 -137 55 -141 4 -4 69 -6 143 -5
l136 3 -50 130 c-47 123 -445 1146 -455 1173 -4 9 -43 12 -148 12 l-143 0 -11
-27z m253 -541 c47 -128 86 -235 86 -237 0 -3 -81 -5 -180 -5 -99 0 -180 3
-180 7 0 25 176 491 181 480 4 -6 45 -117 93 -245z"/>
<path d="M10840 5743 c0 -256 0 -258 -19 -228 -70 116 -262 174 -431 131 -126
-33 -229 -115 -285 -230 -158 -321 -9 -692 305 -757 85 -18 207 -6 276 25 67
31 86 46 125 100 l29 39 0 -71 0 -72 133 0 132 0 -3 660 -2 660 -130 0 -130 0
0 -257z m-145 -342 c89 -41 145 -127 153 -232 8 -121 -41 -214 -140 -263 -66
-33 -180 -36 -243 -7 -91 42 -146 137 -147 254 0 122 46 206 137 248 55 26
185 26 240 0z"/>
<path d="M12712 5620 l3 -180 -182 0 -183 0 0 -125 0 -125 180 0 180 0 0 -175
0 -175 125 0 125 0 0 175 0 175 175 0 175 0 0 125 0 125 -175 0 -175 0 0 180
0 180 -125 0 -126 0 3 -180z"/>
<path d="M6996 5641 c-122 -41 -230 -145 -275 -266 -59 -157 -41 -371 42 -502
37 -59 122 -132 185 -160 68 -31 206 -42 292 -24 71 15 145 62 173 109 l22 37
3 -65 c6 -120 -36 -204 -124 -251 -98 -53 -209 -46 -283 17 -23 20 -41 42 -41
50 0 11 -25 14 -139 14 l-139 0 10 -42 c29 -133 137 -232 295 -273 71 -19 270
-21 339 -4 121 30 229 110 278 208 54 106 56 125 56 659 l0 493 -125 -2 -125
-1 -1 -72 c0 -59 -2 -68 -12 -52 -32 50 -64 78 -123 107 -85 42 -216 50 -308
20z m299 -220 c48 -21 108 -86 130 -138 42 -101 24 -231 -43 -305 -50 -56
-101 -78 -183 -78 -200 0 -313 201 -227 403 23 53 85 113 133 126 53 16 147
12 190 -8z"/>
<path d="M8220 5653 c-238 -40 -380 -231 -380 -510 0 -163 41 -275 134 -368
88 -88 194 -125 359 -125 207 0 342 76 418 235 16 33 29 66 29 73 0 9 -30 12
-118 12 l-118 0 -23 -31 c-13 -17 -48 -42 -78 -56 -48 -22 -65 -25 -134 -21
-63 4 -86 10 -118 31 -47 31 -91 101 -98 157 l-6 40 357 0 356 0 0 70 c0 91
-15 160 -55 245 -58 127 -152 204 -290 240 -55 14 -175 18 -235 8z m164 -204
c79 -20 155 -107 156 -176 l0 -23 -225 0 c-257 0 -245 -5 -199 88 48 97 153
140 268 111z"/>
<path d="M9407 5650 c-60 -16 -119 -50 -159 -93 l-38 -40 0 61 0 62 -130 0
-130 0 -2 -480 -3 -480 133 0 132 0 0 265 c0 316 6 353 64 411 77 78 214 86
295 18 55 -46 61 -86 61 -406 l0 -288 131 0 130 0 -3 348 c-3 335 -4 349 -26
404 -32 79 -99 150 -177 189 -55 27 -78 32 -152 35 -49 2 -105 -1 -126 -6z"/>
<path d="M11615 5648 c-122 -23 -248 -115 -301 -220 -36 -72 -64 -190 -64
-272 1 -253 126 -436 335 -491 74 -19 233 -19 302 -1 130 35 227 113 281 228
18 36 32 69 32 72 0 3 -54 6 -120 6 l-120 0 -35 -39 c-93 -102 -309 -93 -378
17 -24 36 -47 101 -47 130 0 9 79 12 361 12 l362 0 -6 88 c-15 204 -104 355
-254 431 -91 46 -231 62 -348 39z m176 -199 c71 -15 133 -73 154 -142 8 -28
15 -52 15 -54 0 -2 -104 -3 -230 -3 l-230 0 6 28 c22 92 85 155 174 173 52 10
54 10 111 -2z"/>
</g>
</svg>
